<svg width="254" height="190" viewBox="0 0 254 190" fill="none" xmlns="http://www.w3.org/2000/svg">
<rect x="91" y="17" width="85" height="112" fill="#FBFCFD" stroke="#005EA2" stroke-width="2"/>
<rect x="96" y="27" width="67" height="2" fill="#005EA2"/>
<rect x="96" y="93" width="67" height="2" fill="#005EA2"/>
<rect x="96" y="60" width="74" height="2" fill="#005EA2"/>
<rect x="96" y="37" width="61" height="2" fill="#005EA2"/>
<rect x="96" y="103" width="61" height="2" fill="#005EA2"/>
<rect x="96" y="70" width="72" height="2" fill="#005EA2"/>
<rect x="96" y="52" width="64" height="2" fill="#005EA2"/>
<rect x="96" y="118" width="64" height="2" fill="#005EA2"/>
<rect x="96" y="85" width="68" height="2" fill="#005EA2"/>
<rect x="96" y="32" width="72" height="2" fill="#005EA2"/>
<rect x="96" y="98" width="72" height="2" fill="#005EA2"/>
<rect x="96" y="65" width="69" height="2" fill="#005EA2"/>
<rect x="96" y="47" width="74" height="2" fill="#005EA2"/>
<rect x="96" y="113" width="74" height="2" fill="#005EA2"/>
<rect x="96" y="80" width="70" height="2" fill="#005EA2"/>
<rect x="96" y="42" width="66" height="2" fill="#005EA2"/>
<rect x="96" y="108" width="66" height="2" fill="#005EA2"/>
<rect x="96" y="75" width="65" height="2" fill="#005EA2"/>
<rect x="52" y="24" width="85" height="112" fill="#FBFCFD" stroke="#005EA2" stroke-width="2"/>
<rect x="57" y="34" width="67" height="2" fill="#005EA2"/>
<rect x="57" y="100" width="67" height="2" fill="#005EA2"/>
<rect x="57" y="67" width="74" height="2" fill="#005EA2"/>
<rect x="57" y="44" width="61" height="2" fill="#005EA2"/>
<rect x="57" y="110" width="61" height="2" fill="#005EA2"/>
<rect x="57" y="77" width="72" height="2" fill="#005EA2"/>
<rect x="57" y="59" width="64" height="2" fill="#005EA2"/>
<rect x="57" y="125" width="64" height="2" fill="#005EA2"/>
<rect x="57" y="92" width="68" height="2" fill="#005EA2"/>
<rect x="57" y="39" width="72" height="2" fill="#005EA2"/>
<rect x="57" y="105" width="72" height="2" fill="#005EA2"/>
<rect x="57" y="72" width="69" height="2" fill="#005EA2"/>
<rect x="57" y="54" width="74" height="2" fill="#005EA2"/>
<rect x="57" y="120" width="74" height="2" fill="#005EA2"/>
<rect x="57" y="87" width="70" height="2" fill="#005EA2"/>
<rect x="57" y="49" width="66" height="2" fill="#005EA2"/>
<rect x="57" y="115" width="66" height="2" fill="#005EA2"/>
<rect x="57" y="82" width="65" height="2" fill="#005EA2"/>
<rect x="142" y="50" width="85" height="112" fill="#FBFCFD" stroke="#005EA2" stroke-width="2"/>
<rect x="147" y="60" width="67" height="2" fill="#005EA2"/>
<rect x="147" y="126" width="67" height="2" fill="#005EA2"/>
<rect x="147" y="93" width="74" height="2" fill="#005EA2"/>
<rect x="147" y="70" width="61" height="2" fill="#005EA2"/>
<rect x="147" y="136" width="61" height="2" fill="#005EA2"/>
<rect x="147" y="103" width="72" height="2" fill="#005EA2"/>
<rect x="147" y="85" width="64" height="2" fill="#005EA2"/>
<rect x="147" y="151" width="64" height="2" fill="#005EA2"/>
<rect x="147" y="118" width="68" height="2" fill="#005EA2"/>
<rect x="147" y="65" width="72" height="2" fill="#005EA2"/>
<rect x="147" y="131" width="72" height="2" fill="#005EA2"/>
<rect x="147" y="98" width="69" height="2" fill="#005EA2"/>
<rect x="147" y="80" width="74" height="2" fill="#005EA2"/>
<rect x="147" y="146" width="74" height="2" fill="#005EA2"/>
<rect x="147" y="113" width="70" height="2" fill="#005EA2"/>
<rect x="147" y="75" width="66" height="2" fill="#005EA2"/>
<rect x="147" y="141" width="66" height="2" fill="#005EA2"/>
<rect x="147" y="108" width="65" height="2" fill="#005EA2"/>
<rect x="30" y="46" width="87" height="112" fill="#FBFCFD" stroke="#005EA2" stroke-width="2"/>
<rect x="35.1377" y="56" width="68.5402" height="2" fill="#005EA2"/>
<rect x="35.1377" y="122" width="68.5402" height="2" fill="#005EA2"/>
<rect x="35.1377" y="89" width="75.7011" height="2" fill="#005EA2"/>
<rect x="35.1377" y="66" width="62.4023" height="2" fill="#005EA2"/>
<rect x="35.1377" y="132" width="62.4023" height="2" fill="#005EA2"/>
<rect x="35.1377" y="99" width="73.6552" height="2" fill="#005EA2"/>
<rect x="35.1377" y="81" width="65.4713" height="2" fill="#005EA2"/>
<rect x="35.1377" y="147" width="65.4713" height="2" fill="#005EA2"/>
<rect x="35.1377" y="114" width="69.5632" height="2" fill="#005EA2"/>
<rect x="35.1377" y="61" width="73.6552" height="2" fill="#005EA2"/>
<rect x="35.1377" y="127" width="73.6552" height="2" fill="#005EA2"/>
<rect x="35.1377" y="94" width="70.5862" height="2" fill="#005EA2"/>
<rect x="35.1377" y="76" width="75.7011" height="2" fill="#005EA2"/>
<rect x="35.1377" y="142" width="75.7011" height="2" fill="#005EA2"/>
<rect x="35.1377" y="109" width="71.6092" height="2" fill="#005EA2"/>
<rect x="35.1377" y="71" width="67.5172" height="2" fill="#005EA2"/>
<rect x="35.1377" y="137" width="67.5172" height="2" fill="#005EA2"/>
<rect x="35.1377" y="104" width="66.4943" height="2" fill="#005EA2"/>
<rect x="83" y="61" width="85" height="112" fill="#FBFCFD" stroke="#005EA2" stroke-width="2"/>
<rect x="88" y="71" width="67" height="2" fill="#005EA2"/>
<rect x="88" y="137" width="67" height="2" fill="#005EA2"/>
<rect x="88" y="104" width="74" height="2" fill="#005EA2"/>
<rect x="88" y="81" width="61" height="2" fill="#005EA2"/>
<rect x="88" y="147" width="61" height="2" fill="#005EA2"/>
<rect x="88" y="114" width="72" height="2" fill="#005EA2"/>
<rect x="88" y="96" width="64" height="2" fill="#005EA2"/>
<rect x="88" y="162" width="64" height="2" fill="#005EA2"/>
<rect x="88" y="129" width="68" height="2" fill="#005EA2"/>
<rect x="88" y="76" width="72" height="2" fill="#005EA2"/>
<rect x="88" y="142" width="72" height="2" fill="#005EA2"/>
<rect x="88" y="109" width="69" height="2" fill="#005EA2"/>
<rect x="88" y="91" width="74" height="2" fill="#005EA2"/>
<rect x="88" y="157" width="74" height="2" fill="#005EA2"/>
<rect x="88" y="124" width="70" height="2" fill="#005EA2"/>
<rect x="88" y="86" width="66" height="2" fill="#005EA2"/>
<rect x="88" y="152" width="66" height="2" fill="#005EA2"/>
<rect x="88" y="119" width="65" height="2" fill="#005EA2"/>
<path d="M254 95C254 147.467 254 190 127 190C12.5 190 0 147.467 0 95C0 42.5329 56.8598 0 127 0C197.14 0 254 42.5329 254 95Z" fill="url(#paint0_radial)"/>
<path d="M160.764 77.1321C160.764 97.3635 144.364 113.764 124.132 113.764C103.901 113.764 87.5 97.3635 87.5 77.1321C87.5 56.9008 103.901 40.5 124.132 40.5C144.364 40.5 160.764 56.9008 160.764 77.1321Z" stroke="#112F4E" stroke-width="11"/>
<path fill-rule="evenodd" clip-rule="evenodd" d="M149.908 114.101C153.487 111.609 156.662 108.576 159.312 105.121L195.923 141.731L186.731 150.924L149.908 114.101Z" fill="#112F4E"/>
<defs>
<radialGradient id="paint0_radial" cx="0" cy="0" r="1" gradientUnits="userSpaceOnUse" gradientTransform="translate(127 75) rotate(90) scale(122 163.095)">
<stop offset="0.130208" stop-color="#112F4E" stop-opacity="0"/>
<stop offset="1" stop-color="#112F4E"/>
</radialGradient>
</defs>
</svg>
