<svg width="59" height="48" viewBox="0 0 59 48" fill="none" xmlns="http://www.w3.org/2000/svg">
<rect x="1.05963" y="1.24322" width="56.7024" height="37.8244" rx="3.1381" fill="white" stroke="#112F4E" stroke-width="0.896599"/>
<rect x="57.7587" y="47.3942" width="56.7024" height="37.8244" rx="3.1381" transform="rotate(180 57.7587 47.3942)" fill="white" stroke="#112F4E" stroke-width="0.896599"/>
<rect x="1.05572" y="3.50811" width="56.7024" height="37.8244" rx="3.1381" fill="white" stroke="#112F4E" stroke-width="0.896599"/>
<rect x="57.7587" y="45.1328" width="56.7024" height="37.8244" rx="3.1381" transform="rotate(180 57.7587 45.1328)" fill="white" stroke="#112F4E" stroke-width="0.896599"/>
<rect x="1.05572" y="5.40582" width="56.7024" height="37.8244" rx="3.1381" fill="white" stroke="#112F4E" stroke-width="0.896599"/>
<path d="M8.92856 21.1248C11.9498 21.1248 13.986 19.6017 13.986 17.6317C13.986 16.3653 13.6218 14.4449 10.5675 13.8738L8.43192 13.4351C7.09926 13.1454 6.71023 12.7233 6.71023 12.0197C6.71023 11.134 7.56279 10.5132 8.912 10.5132C10.2198 10.5132 11.1717 10.985 11.3538 12.268L13.8536 12.2266C13.6467 10.3063 11.8008 8.55147 8.87889 8.55147C6.15564 8.55147 4.03664 10 4.06147 12.3011C4.0863 14.1966 5.27824 15.281 7.16548 15.6286L9.33415 16.0673C10.5344 16.3074 11.4449 16.7212 11.4449 17.64C11.4449 18.6912 10.3026 19.1879 8.92028 19.1879C7.57107 19.1879 6.51985 18.5754 6.27153 17.4579L3.69727 17.5076C3.96214 19.9742 6.46191 21.1248 8.92856 21.1248Z" fill="#112F4E"/>
<path d="M22.2055 21.1248C25.6571 21.1248 27.8258 18.7409 27.8258 14.8588C27.8258 10.9353 25.624 8.53491 22.2137 8.53491C18.7786 8.53491 16.5603 10.9436 16.5603 14.8671C16.5603 18.7657 18.729 21.1248 22.2055 21.1248ZM22.2137 19.0968C20.4258 19.0968 19.267 17.8801 19.267 14.8919C19.267 11.8376 20.4258 10.5711 22.2137 10.5711C23.9934 10.5711 25.1356 11.8293 25.1356 14.8919C25.1356 17.8801 24.0016 19.0968 22.2137 19.0968Z" fill="#112F4E"/>
<path d="M40.6391 20.9592L38.3629 15.8273C39.5134 15.2561 40.515 14.3042 40.515 12.3673C40.515 10.2069 39.232 8.70046 36.3018 8.70046H31.1284V20.9592H33.6034V16.2329H36.0783L38.0732 20.9592H40.6391ZM35.8631 14.3291H33.6034V10.5877H36.0369C37.1792 10.5877 38.0069 11.2996 38.0069 12.4253C38.0069 13.551 37.1792 14.3291 35.8631 14.3291Z" fill="#112F4E"/>
<path d="M52.0702 8.70046V16.8206L46.483 8.70046H44.0246V20.9592H46.4995V12.5246L52.3185 20.9592H54.5451V8.70046H52.0702Z" fill="#112F4E"/>
<path d="M4.19238 27.5689V39.8277H7.7682C12.1635 39.8277 14.2163 37.4521 14.2163 33.6445C14.2163 29.9776 12.3208 27.7014 7.85925 27.5855C6.80803 27.5606 4.4407 27.5689 4.19238 27.5689ZM6.68387 29.572H7.85925C10.1852 29.572 11.6255 30.7557 11.6255 33.6279C11.6255 36.7071 9.92032 37.8328 7.82614 37.8328H6.68387V29.572Z" fill="#112F4E"/>
<path d="M16.4843 39.8277H18.9675L19.9856 36.9886H24.3974L25.399 39.8277H27.8656L23.4869 27.5689H20.8713L16.4843 39.8277ZM20.5402 34.8199L22.1874 29.9611L23.8015 34.8199H20.5402Z" fill="#112F4E"/>
<path d="M35.5967 39.9932C38.6179 39.9932 40.6542 38.4702 40.6542 36.5002C40.6542 35.2338 40.29 33.3134 37.2356 32.7423L35.1001 32.3036C33.7674 32.0139 33.3784 31.5917 33.3784 30.8881C33.3784 30.0025 34.2309 29.3817 35.5801 29.3817C36.888 29.3817 37.8399 29.8535 38.022 31.1365L40.5217 31.0951C40.3148 29.1747 38.4689 27.4199 35.547 27.4199C32.8238 27.4199 30.7048 28.8685 30.7296 31.1696C30.7544 33.0651 31.9464 34.1494 33.8336 34.4971L36.0023 34.9358C37.2025 35.1758 38.113 35.5897 38.113 36.5085C38.113 37.5597 36.9707 38.0563 35.5884 38.0563C34.2392 38.0563 33.188 37.4438 32.9397 36.3264L30.3654 36.376C30.6303 38.8427 33.13 39.9932 35.5967 39.9932Z" fill="#112F4E"/>
<path d="M51.0836 34.5633V39.8277H53.5586V27.5689H51.0836V32.4857H46.4152V27.5689H43.9403V39.8277H46.4152V34.5633H51.0836Z" fill="#112F4E"/>
<path d="M1.11719 24.3191H57.8061" stroke="#112F4E" stroke-width="0.896599"/>
</svg>
