<svg width="445" height="239" viewBox="0 0 445 239" fill="none" xmlns="http://www.w3.org/2000/svg">
<rect x="46" y="32" width="248.484" height="182" rx="13.2968" fill="#005EA2" fill-opacity="0.1"/>
<rect x="100.5" y="56.5" width="273" height="181.667" fill="#FBFCFD" stroke="#A9AEB1"/>
<rect x="100" y="56" width="274" height="15.8841" fill="#A9AEB1"/>
<rect x="177.5" y="181.5" width="151.884" height="56.5797" fill="white" stroke="#122D52"/>
<rect x="206.783" y="188.942" width="81.4058" height="3.97101" fill="#122D52"/>
<rect x="182.957" y="188.942" width="17.8696" height="3.97101" fill="#005EA2"/>
<rect x="206.783" y="198.87" width="99.2754" height="3.97101" fill="#122D52"/>
<rect x="182.957" y="198.87" width="17.8696" height="3.97101" fill="#005EA2"/>
<rect x="206.783" y="208.797" width="73.4638" height="3.97101" fill="#122D52"/>
<rect x="182.957" y="208.797" width="17.8696" height="3.97101" fill="#005EA2"/>
<rect x="206.783" y="218.725" width="91.3333" height="3.97101" fill="#122D52"/>
<rect x="182.957" y="218.725" width="17.8696" height="3.97101" fill="#005EA2"/>
<rect x="206.783" y="228.652" width="67.5072" height="3.97101" fill="#122D52"/>
<rect x="182.957" y="228.652" width="17.8696" height="3.97101" fill="#005EA2"/>
<rect x="178.012" y="182.09" width="150.431" height="3.5817" fill="#122D52"/>
<rect x="192.5" y="145.5" width="194.163" height="72.503" fill="white" stroke="#122D52"/>
<rect x="229.87" y="155.188" width="80.0134" height="4.57219" fill="#122D52"/>
<rect x="199.604" y="155.138" width="22.8113" height="5.06917" fill="#005EA2"/>
<rect x="230.019" y="167.811" width="90.1408" height="5.06917" fill="#122D52"/>
<rect x="199.604" y="167.811" width="22.8113" height="5.06917" fill="#005EA2"/>
<rect x="230.019" y="180.484" width="112.064" height="5.06917" fill="#122D52"/>
<rect x="199.604" y="180.484" width="22.8113" height="5.06917" fill="#005EA2"/>
<rect x="230.019" y="193.157" width="80.0134" height="5.06917" fill="#122D52"/>
<rect x="199.604" y="193.157" width="22.8113" height="5.06917" fill="#005EA2"/>
<rect x="230.019" y="205.83" width="86.1759" height="5.06917" fill="#122D52"/>
<rect x="199.604" y="205.83" width="22.8113" height="5.06917" fill="#005EA2"/>
<rect x="193" y="145" width="194" height="6" fill="#122D52"/>
<rect x="228.5" y="102.5" width="215.454" height="80.5217" fill="white" stroke="#122D52"/>
<rect x="270.167" y="113.244" width="115.255" height="5.62219" fill="#122D52"/>
<rect x="236.434" y="113.244" width="25.2998" height="5.62219" fill="#005EA2"/>
<rect x="270.167" y="127.3" width="140.555" height="5.62219" fill="#122D52"/>
<rect x="236.434" y="127.3" width="25.2998" height="5.62219" fill="#005EA2"/>
<rect x="270.167" y="141.355" width="104.01" height="5.62219" fill="#122D52"/>
<rect x="236.434" y="141.355" width="25.2998" height="5.62219" fill="#005EA2"/>
<rect x="270.167" y="155.411" width="129.31" height="5.62219" fill="#122D52"/>
<rect x="236.434" y="155.411" width="25.2998" height="5.62219" fill="#005EA2"/>
<rect x="270.167" y="169.466" width="95.5772" height="5.62219" fill="#122D52"/>
<rect x="236.434" y="169.466" width="25.2998" height="5.62219" fill="#005EA2"/>
<rect x="229" y="103" width="215" height="6" fill="#122D52"/>
<rect x="122.34" y="78.3406" width="229.319" height="12.8986" stroke="#A9AEB1"/>
<rect x="324.362" y="77.8406" width="27.7971" height="13.8986" fill="#005EA2"/>
<rect x="79.5" y="102.5" width="89" height="91.5714" fill="#FBFCFD" stroke="#A9AEB1"/>
<rect x="81.5715" y="120" width="84.8571" height="2.57143" fill="#808487"/>
<rect x="81.5715" y="138" width="84.8571" height="2.57143" fill="#808487"/>
<rect x="81.5715" y="156" width="84.8571" height="2.57143" fill="#808487"/>
<rect x="81.5715" y="174" width="84.8571" height="2.57143" fill="#808487"/>
<rect x="85.5049" y="110.37" width="37.1092" height="4.63866" fill="#122D52"/>
<rect x="85.5046" y="128.924" width="37.1092" height="4.63866" fill="#122D52"/>
<rect x="85.5046" y="145.16" width="37.1092" height="4.63866" fill="#122D52"/>
<rect x="85.5046" y="163.714" width="37.1092" height="4.63866" fill="#122D52"/>
<rect x="85.5046" y="182.269" width="37.1092" height="4.63866" fill="#122D52"/>
<circle r="2.68627" transform="matrix(1 0 0 -1 106.268 64.0588)" fill="#FBFCFD"/>
<circle r="2.68627" transform="matrix(1 0 0 -1 115.222 64.0588)" fill="#FBFCFD"/>
<circle r="2.68627" transform="matrix(1 0 0 -1 124.177 64.0588)" fill="#FBFCFD"/>
<circle cx="46" cy="46" r="46" fill="#005EA2"/>
<path d="M41.7649 56.4372V54.4822C41.7649 52.2421 42.1722 50.3787 42.9868 48.8921C43.8013 47.4055 45.2269 45.868 47.2633 44.2795C49.6867 42.3653 51.2446 40.8786 51.937 39.8197C52.6498 38.7607 53.0061 37.4981 53.0061 36.0319C53.0061 34.3212 52.4359 33.0077 51.2955 32.0913C50.1551 31.1749 48.5157 30.7167 46.3775 30.7167C44.4428 30.7167 42.6507 30.9916 41.0012 31.5415C39.3517 32.0913 37.7429 32.7532 36.1748 33.527L33.6089 28.1508C37.7429 25.8496 42.1722 24.699 46.8968 24.699C50.8882 24.699 54.0549 25.6765 56.3968 27.6315C58.7388 29.5865 59.9097 32.2848 59.9097 35.7264C59.9097 37.2537 59.6857 38.6182 59.2377 39.8197C58.7897 41.0008 58.1075 42.1311 57.1911 43.2104C56.295 44.2897 54.7371 45.6949 52.5174 47.4259C50.6235 48.9125 49.3507 50.1445 48.699 51.122C48.0677 52.0995 47.7521 53.413 47.7521 55.0626V56.4372H41.7649ZM40.5125 66.1816C40.5125 63.1066 42.0093 61.5691 45.0029 61.5691C46.4691 61.5691 47.5892 61.9764 48.363 62.7909C49.1369 63.5852 49.5238 64.7154 49.5238 66.1816C49.5238 67.6275 49.1267 68.7781 48.3325 69.6334C47.5586 70.4684 46.4487 70.8859 45.0029 70.8859C43.557 70.8859 42.4471 70.4786 41.6732 69.664C40.8994 68.829 40.5125 67.6683 40.5125 66.1816Z" fill="#FBFCFD"/>
</svg>
