<svg width="357" height="368" viewBox="0 0 357 368" fill="none" xmlns="http://www.w3.org/2000/svg">
<g opacity="0.8">
<path fill-rule="evenodd" clip-rule="evenodd" d="M154.847 239.323C143.804 232.685 133.883 224.372 125.434 214.736L-0.000404596 340.17L26.9995 367.17L154.847 239.323Z" fill="#112F4E" fill-opacity="0.15"/>
<path d="M104.969 126.015C104.969 195.611 161.388 252.03 230.984 252.03C300.58 252.03 356.999 195.611 356.999 126.015C356.999 56.4189 300.58 0 230.984 0C161.388 0 104.969 56.4189 104.969 126.015ZM321.879 126.015C321.879 176.215 281.184 216.91 230.984 216.91C180.784 216.91 140.089 176.215 140.089 126.015C140.089 75.8152 180.784 35.1202 230.984 35.1202C281.184 35.1202 321.879 75.8152 321.879 126.015Z" fill="#112F4E" fill-opacity="0.15"/>
</g>
</svg>
